/* XPM */
static char * close_inactive_xpm[] = {
"18 18 17 1",
" 	c #EFF0F1",
".	c #E1E4E6",
"+	c #D1D5D8",
"@	c #C5CACE",
"#	c #BFC5C9",
"$	c #E7E9EB",
"%	c #C9CDD1",
"&	c #BDC3C7",
"*	c #E3E6E7",
"=	c #C0C6CA",
"-	c #CBCFD2",
";	c #EDEEF0",
">	c #CCD1D4",
",	c #D1D5D7",
"'	c #EEEEF1",
")	c #EEEFF0",
"!	c #C9CED2",
"     .+@##@+.     ",
"   $%&&&&&&&&%$   ",
"  *=&&&&&&&&&&=*  ",
" $=&&&&&&&&&&&&=$ ",
" %&&%-&&&&&&-%&&% ",
".&&&-;>&&&&>;-&&&.",
"+&&&&>;>&&>;>&&&&,",
"@&&&&&>;>>;>&&&&&@",
"#&&&&&&>')>&&&&&&#",
"#&&&&&&>)'>&&&&&&#",
"@&&&&&>;>>;>&&&&&@",
"+&&&&>;>&&>;>&&&&,",
".&&&-;>&&&&>;-&&&.",
" %&&%-&&&&&&-%&&! ",
" $=&&&&&&&&&&&&=$ ",
"  *=&&&&&&&&&&=*  ",
"   $%&&&&&&&&%$   ",
"     .,@##@,.     "};
