/* XPM */
static char * close_pressed_xpm[] = {
"18 18 46 1",
" 	c #525C64",
".	c #535D65",
"+	c #6A5860",
"@	c #A85A65",
"#	c #D95763",
"$	c #F35160",
"%	c #515C63",
"&	c #6C656D",
"*	c #C65A67",
"=	c #FF4F60",
"-	c #505B62",
";	c #7A6A72",
">	c #EF5160",
",	c #505A62",
"'	c #6B646C",
")	c #C55966",
"!	c #C35764",
"~	c #BC5864",
"{	c #BB5765",
"]	c #68565D",
"^	c #4F545B",
"/	c #B45865",
"(	c #A75964",
"_	c #A55966",
":	c #D85665",
"<	c #4D5359",
"[	c #D85662",
"}	c #A55964",
"|	c #65535A",
"1	c #4B545B",
"2	c #C45865",
"3	c #C35767",
"4	c #49545B",
"5	c #645F65",
"6	c #EF5164",
"7	c #ED5361",
"8	c #495259",
"9	c #605058",
"0	c #ED515F",
"a	c #485158",
"b	c #635D63",
"c	c #475057",
"d	c #635157",
"e	c #A15963",
"f	c #D75562",
"g	c #F25261",
"    .+@#$$#@+.    ",
"%%%&*========*&%%%",
"--;>==========>;--",
",'>============>',",
",)==!~======{!==),",
"]==={^/====/^~===]",
"(====/^/==/^/====_",
":=====/^//^/=====:",
"$======/<</======$",
"$======/<</======$",
"[=====/^//^/=====[",
"}====/^/==/^/====}",
"|===~^/====/^{===|",
"12==!{======~!==31",
"456============754",
"8896==========0988",
"aaab!========!baaa",
"ccccadefggfedacccc"};
