/* XPM */
static char * close_active_xpm[] = {
"18 18 46 1",
" 	c #525C64",
".	c #535D65",
"+	c #7D848A",
"@	c #B1B6B9",
"#	c #D7D9DB",
"$	c #E8E9EB",
"%	c #515C63",
"&	c #697278",
"*	c #C9CDCF",
"=	c #EFF0F1",
"-	c #505B62",
";	c #767E85",
">	c #E5E7E8",
",	c #505A62",
"'	c #687177",
")	c #C9CCCE",
"!	c #C7CACC",
"~	c #C1C5C8",
"{	c #C0C4C7",
"]	c #7B8287",
"^	c #4E575D",
"/	c #BBBFC1",
"(	c #B0B5B8",
"_	c #AFB4B8",
":	c #D6D8DB",
"<	c #E8E9EA",
"[	c #4C555B",
"}	c #D6D8DA",
"|	c #AEB3B6",
"1	c #777E83",
"2	c #4B545B",
"3	c #C8CBCD",
"4	c #49535A",
"5	c #626B71",
"6	c #E5E6E8",
"7	c #E4E6E7",
"8	c #495259",
"9	c #71777E",
"0	c #E4E5E7",
"a	c #485158",
"b	c #61696F",
"c	c #475057",
"d	c #757B80",
"e	c #ACB1B4",
"f	c #D5D7D9",
"g	c #E7E9EA",
"    .+@#$$#@+.    ",
"%%%&*========*&%%%",
"--;>==========>;--",
",'>============>',",
",)==!~======{!==),",
"]==={^/====/^~===]",
"(====/^/==/^/====_",
":=====/^//^/=====:",
"<======/[[/======<",
"<======/[[/======<",
"}=====/^//^/=====}",
"|====/^/==/^/====|",
"1===~^/====/^{===1",
"23==!{======~!==!2",
"456============754",
"8896==========0988",
"aaab!========!baaa",
"ccccadefggfedacccc"};
