/* XPM */
static char * hide_inactive_xpm[] = {
"18 18 7 1",
" 	c None",
".	c #EFF0F1",
"+	c #E3E6E7",
"@	c #E1E4E6",
"#	c #BFC5C8",
"$	c #E0E2E4",
"%	c #BDC3C7",
"..................",
"..................",
"..................",
"..................",
"..................",
"..................",
"...+@........@+...",
"...@#$......$#@...",
"....$#$....$#$....",
".....$#$..$#$.....",
"......$#$$#$......",
".......$%%$.......",
"........$$........",
"..................",
"..................",
"..................",
"..................",
".................."};
