/* XPM */
static char * hide_prelight_xpm[] = {
"18 18 46 1",
" 	c None",
".	c #525C64",
"+	c #535D65",
"@	c #7D848A",
"#	c #B1B6B9",
"$	c #D7D9DB",
"%	c #E8E9EB",
"&	c #515C63",
"*	c #697278",
"=	c #C9CDCF",
"-	c #EFF0F1",
";	c #505B62",
">	c #767E85",
",	c #E5E7E8",
"'	c #505A62",
")	c #687177",
"!	c #C9CCCE",
"~	c #7B8287",
"{	c #B0B5B8",
"]	c #C7CACC",
"^	c #C1C5C8",
"/	c #C0C4C7",
"(	c #AFB4B8",
"_	c #D6D8DB",
":	c #4E575D",
"<	c #BBBFC1",
"[	c #E8E9EA",
"}	c #D6D8DA",
"|	c #AEB3B6",
"1	c #475057",
"2	c #777E83",
"3	c #4B545B",
"4	c #C8CBCD",
"5	c #49535A",
"6	c #626B71",
"7	c #E5E6E8",
"8	c #E4E6E7",
"9	c #495259",
"0	c #71777E",
"a	c #E4E5E7",
"b	c #485158",
"c	c #61696F",
"d	c #757B80",
"e	c #ACB1B4",
"f	c #D5D7D9",
"g	c #E7E9EA",
"....+@#$%%$#@+....",
"&&&*=--------=*&&&",
";;>,----------,>;;",
"'),------------,)'",
"'!--------------!'",
"~----------------~",
"{--]^--------/]--(",
"_--/:<------<:^--_",
"[---<:<----<:<---[",
"[----<:<--<:<----[",
"}-----<:<<:<-----}",
"|------<11<------|",
"2-------<<-------2",
"34--------------]3",
"567------------865",
"9907----------a099",
"bbbc]--------]cbbb",
"1111bdefggfedb1111"};
