/* XPM */
static char * maximize_toggled_inactive_xpm[] = {
"18 18 10 1",
" 	c None",
".	c #EFF0F1",
"+	c #EEF0F1",
"@	c #EDEEF0",
"#	c #BEC5C9",
"$	c #BDC3C7",
"%	c #CACED1",
"&	c #C8CCD0",
"*	c #C4C9CD",
"=	c #C8CDD0",
"..................",
"..................",
"..................",
"........++........",
".......@#$@.......",
"......@%&&%@......",
".....@%%@@%%@.....",
"....@%%@..@%%@....",
"...+*=@....@=*+...",
"...+*=@....@=*+...",
"....@%%@..@%%@....",
".....@%%@@%%@.....",
"......@%==%@......",
".......@**@.......",
"........++........",
"..................",
"..................",
".................."};
