/* XPM */
static char * shade_toggled_active_xpm[] = {
"18 18 34 1",
" 	c None",
".	c #525C64",
"+	c #515C63",
"@	c #505B62",
"#	c #505A62",
"$	c #4F5961",
"%	c #747C83",
"&	c #A7ACB0",
"*	c #4F5960",
"=	c #747C82",
"-	c #A7ACAF",
";	c #4E5860",
">	c #4D575F",
",	c #747B82",
"'	c #798086",
")	c #7A8187",
"!	c #4D575E",
"~	c #7A8186",
"{	c #E8EAEB",
"]	c #7F868C",
"^	c #4C565D",
"/	c #7E858B",
"(	c #4C555D",
"_	c #4B555C",
":	c #7E858A",
"<	c #4A545B",
"[	c #7D848A",
"}	c #EFF0F1",
"|	c #4A535A",
"1	c #7D8389",
"2	c #49535A",
"3	c #495259",
"4	c #485158",
"5	c #475057",
"..................",
"++++++++++++++++++",
"@@@@@@@@@@@@@@@@@@",
"##################",
"$$$%&&&&&&&&&&%$$$",
"***=----------=***",
";;;;;;;;;;;;;;;;;;",
">>>,'>>>>>>>>),>>>",
"!!!~{]!!!!!!]{'!!!",
"^^^^/{/^^^^/{/^^^^",
"(((((/{/((/{/(((((",
"______:{::{:______",
"<<<<<<<[}}[<<<<<<<",
"||||||||11||||||||",
"222222222222222222",
"333333333333333333",
"444444444444444444",
"555555555555555555"};
