/* XPM */
static char * shade_toggled_pressed_xpm[] = {
"18 18 48 1",
" 	c None",
".	c #525C64",
"+	c #535D65",
"@	c #7D848A",
"#	c #B1B6B9",
"$	c #D7D9DB",
"%	c #E8E9EB",
"&	c #515C63",
"*	c #697278",
"=	c #C9CDCF",
"-	c #EFF0F1",
";	c #505B62",
">	c #767E85",
",	c #E5E7E8",
"'	c #505A62",
")	c #687177",
"!	c #C9CCCE",
"~	c #C8CBCC",
"{	c #93989D",
"]	c #7B8287",
"^	c #B0B5B8",
"/	c #AFB4B8",
"(	c #D6D8DB",
"_	c #C7CACC",
":	c #C1C5C8",
"<	c #C0C4C7",
"[	c #E8E9EA",
"}	c #4E575D",
"|	c #BBBFC1",
"1	c #D6D8DA",
"2	c #AEB3B6",
"3	c #777E83",
"4	c #475057",
"5	c #4B545B",
"6	c #C8CBCD",
"7	c #49535A",
"8	c #626B71",
"9	c #E5E6E8",
"0	c #E4E6E7",
"a	c #495259",
"b	c #71777E",
"c	c #E4E5E7",
"d	c #485158",
"e	c #61696F",
"f	c #757B80",
"g	c #ACB1B4",
"h	c #D5D7D9",
"i	c #E7E9EA",
"....+@#$%%$#@+....",
"&&&*=--------=*&&&",
";;>,----------,>;;",
"'),------------,)'",
"'!-~{{{{{{{{{{~-!'",
"]--~{{{{{{{{{{~--]",
"^----------------/",
"(--_:--------<_--(",
"[--<}|------|}:--[",
"[---|}|----|}|---[",
"1----|}|--|}|----1",
"2-----|}||}|-----2",
"3------|44|------3",
"56------||------_5",
"789------------087",
"aab9----------cbaa",
"ddde_--------_eddd",
"4444dfghiihgfd4444"};
