/* XPM */
static char * shade_prelight_xpm[] = {
"18 18 48 1",
" 	c None",
".	c #525C64",
"+	c #535D65",
"@	c #7D848A",
"#	c #B1B6B9",
"$	c #D7D9DB",
"%	c #E8E9EB",
"&	c #515C63",
"*	c #697278",
"=	c #C9CDCF",
"-	c #EFF0F1",
";	c #505B62",
">	c #767E85",
",	c #E5E7E8",
"'	c #505A62",
")	c #687177",
"!	c #C9CCCE",
"~	c #C8CBCC",
"{	c #93989D",
"]	c #7B8287",
"^	c #B0B5B8",
"/	c #AFB4B8",
"(	c #D6D8DB",
"_	c #BBBFC1",
":	c #E8E9EA",
"<	c #475057",
"[	c #4E575D",
"}	c #D6D8DA",
"|	c #AEB3B6",
"1	c #777E83",
"2	c #C1C5C8",
"3	c #C0C4C7",
"4	c #4B545B",
"5	c #C8CBCD",
"6	c #C7CACC",
"7	c #49535A",
"8	c #626B71",
"9	c #E5E6E8",
"0	c #E4E6E7",
"a	c #495259",
"b	c #71777E",
"c	c #E4E5E7",
"d	c #485158",
"e	c #61696F",
"f	c #757B80",
"g	c #ACB1B4",
"h	c #D5D7D9",
"i	c #E7E9EA",
"....+@#$%%$#@+....",
"&&&*=--------=*&&&",
";;>,----------,>;;",
"'),------------,)'",
"'!-~{{{{{{{{{{~-!'",
"]--~{{{{{{{{{{~--]",
"^----------------/",
"(-------__-------(",
":------_<<_------:",
":-----_[__[_-----:",
"}----_[_--_[_----}",
"|---_[_----_[_---|",
"1--2[_------_[3--1",
"45-63--------26-64",
"789------------087",
"aab9----------cbaa",
"ddde6--------6eddd",
"<<<<dfghiihgfd<<<<"};
