/* XPM */
static char * shade_inactive_xpm[] = {
"18 18 8 1",
" 	c None",
".	c #EFF0F1",
"+	c #E3E6E7",
"@	c #D4D7DA",
"#	c #E0E2E4",
"$	c #BDC3C7",
"%	c #BFC5C8",
"&	c #E1E4E6",
"..................",
"..................",
"..................",
"..................",
"...+@@@@@@@@@@+...",
"...+@@@@@@@@@@+...",
"..................",
"........##........",
".......#$$#.......",
"......#%##%#......",
".....#%#..#%#.....",
"....#%#....#%#....",
"...&%#......#%&...",
"...+&........&+...",
"..................",
"..................",
"..................",
".................."};
