/* XPM */
static char * stick_prelight_xpm[] = {
"18 18 50 1",
" 	c None",
".	c #525C64",
"+	c #535D65",
"@	c #7D848A",
"#	c #B1B6B9",
"$	c #D7D9DB",
"%	c #E8E9EB",
"&	c #515C63",
"*	c #697278",
"=	c #C9CDCF",
"-	c #EFF0F1",
";	c #505B62",
">	c #767E85",
",	c #E5E7E8",
"'	c #505A62",
")	c #687177",
"!	c #9BA0A4",
"~	c #C9CCCE",
"{	c #475057",
"]	c #7B8287",
"^	c #B0B5B8",
"/	c #ECEDEE",
"(	c #AFB4B8",
"_	c #D6D8DB",
":	c #545D63",
"<	c #BBBFC1",
"[	c #E8E9EA",
"}	c #4C565C",
"|	c #4A5359",
"1	c #D6D8DA",
"2	c #4C555B",
"3	c #AEB3B6",
"4	c #4E575D",
"5	c #777E83",
"6	c #4B545B",
"7	c #C8CBCD",
"8	c #C7CACC",
"9	c #49535A",
"0	c #626B71",
"a	c #E5E6E8",
"b	c #E4E6E7",
"c	c #495259",
"d	c #71777E",
"e	c #E4E5E7",
"f	c #485158",
"g	c #61696F",
"h	c #757B80",
"i	c #ACB1B4",
"j	c #D5D7D9",
"k	c #E7E9EA",
"....+@#$%%$#@+....",
"&&&*=--------=*&&&",
";;>,----------,>;;",
"'),--------!!--,)'",
"'~--------!{{!--~'",
"]--------!{{{{!--]",
"^----/--!{{{{{!--(",
"_---/:<!{{{{{!---_",
"[----<}{{{{{!----[",
"[-----<|{{{!-----[",
"1-----<2|{!------1",
"3----<4<<}<------3",
"5---<4<--<:/-----5",
"67-/:<----/-----86",
"90a-/----------b09",
"ccda----------edcc",
"fffg8--------8gfff",
"{{{{fhijkkjihf{{{{"};
