/* XPM */
static char * stick_inactive_xpm[] = {
"18 18 9 1",
" 	c None",
".	c #EFF0F1",
"+	c #D6DADC",
"@	c #BDC3C7",
"#	c #EEEFF0",
"$	c #C1C7CA",
"%	c #E0E2E4",
"&	c #BFC5C8",
"*	c #BEC3C7",
"..................",
"..................",
"..................",
"...........++.....",
"..........+@@+....",
".........+@@@@+...",
".....#..+@@@@@+...",
"....#$%+@@@@@+....",
".....%&@@@@@+.....",
"......%*@@@+......",
"......%&*@+.......",
".....%&%%&%.......",
"....%&%..%$#......",
"...#$%....#.......",
"....#.............",
"..................",
"..................",
".................."};
