/* XPM */
static char * title_5_inactive_xpm[] = {
"5 29 3 1",
" 	c None",
".	c #EFF0F1",
"+	c #EEEFF0",
".....",
".....",
".....",
".....",
".....",
".....",
".....",
".....",
".....",
".....",
".....",
".....",
".....",
".....",
".....",
".....",
".....",
".....",
".....",
".....",
".....",
".....",
".....",
".....",
".....",
".....",
".....",
"+++++",
"....."};
