/* XPM */
static char * title_2_inactive_xpm[] = {
"5 29 3 1",
" 	c None",
".	c #EFF0F1",
"+	c #EEEFF0",
".....",
".....",
".....",
".....",
".....",
".....",
".....",
".....",
".....",
".....",
".....",
".....",
".....",
".....",
".....",
".....",
".....",
".....",
".....",
".....",
".....",
".....",
".....",
".....",
".....",
".....",
".....",
"+++++",
"....."};
