/* XPM */
static char * top_left_inactive_xpm[] = {
"8 29 4 1",
" 	c None",
".	c #EFF0F1",
"+	c #EEEFF0",
"@	c #FAFAFA",
"  ......",
" .......",
"........",
"........",
"........",
"........",
"........",
"........",
"........",
"........",
"........",
"........",
"........",
"........",
"........",
"........",
"........",
"........",
"........",
"........",
"........",
"........",
"........",
"........",
"........",
"........",
"........",
"+++++...",
"@@@@@@@@"};
